<?xml version="1.0" encoding="UTF-8"?>
<svg version="1.1" viewBox="0 0 1600 1384" width="1280" height="1280" xmlns="http://www.w3.org/2000/svg">
<path transform="translate(963,238)" d="m0 0c1.62 1.25 3.25 2.5 4.88 3.75 9.31 7.27 17.4 15.4 25.1 24.2 0.51 0.58 1.01 1.15 1.54 1.75 38.4 44.1 61.1 101 61.8 160 0.02 1.92 0.06 3.84 0.1 5.76 0.03 17.5-6.07 32-18.1 44.7-12.7 12-29 18.2-46.4 18.2-16.5-1.28-32.4-7.15-43.8-19.4-12.3-14.5-16.7-28.2-17.8-47.2-0.74-12.5-2.02-24.3-5.4-36.3-0.29-1.04-0.57-2.09-0.87-3.16-6.11-20.1-17.1-37.5-31.8-52.4-1.21-1.25-2.4-2.54-3.57-3.83-19.7-21.2-50.8-34.2-79.4-35.8-3.72-0.1-7.42-0.13-11.1-0.11-1.31 0-2.63 0.01-3.99 0.01-33.4 0.42-62.6 13.1-87.3 35.3-0.72 0.63-1.44 1.27-2.18 1.92-23.6 22.1-36.9 54.6-38 86.6-0.55 34 10.1 64.6 32.2 90.5 0.63 0.76 1.25 1.52 1.89 2.3 5.11 6.02 10.8 10.9 17.1 15.7 0.78 0.61 1.56 1.21 2.36 1.84 23.5 17.4 51.4 24.3 80.2 24.4 1.78 0.01 3.56 0.02 5.33 0.02 3.82 0.02 7.64 0.04 11.5 0.05 6.06 0.02 12.1 0.05 18.2 0.08 11.8 0.05 23.6 0.1 35.4 0.15 15 0.06 29.9 0.12 44.9 0.19 5.02 0.02 10 0.04 15.1 0.06 36 0.12 36 0.12 53.7 0.64 1.14 0.03 2.28 0.06 3.46 0.09 8.99 0.31 16.7 1.86 24.9 5.53 1.01 0.44 2.01 0.89 3.05 1.35 6.97 3.46 12.4 8.25 18 13.6 0.89 0.83 1.77 1.65 2.69 2.5 17.6 19.1 19.5 39.6 19.4 64.7v4.81c0.01 4.37 0 8.74 0 13.1v14.2c0.01 9.25 0.01 18.5 0.01 27.8-0.01 7.53-0.01 15-0.01 22.6v3.25c0 2.18 0 4.36 0.01 6.54 0 20.4-0.01 40.8-0.01 61.3-0.01 17.5 0 35 0 52.5 0.01 20.4 0.01 40.7 0 61v6.51 3.24c0 7.51 0 15 0.01 22.5 0 9.16 0 18.3-0.01 27.5v14c0.01 4.28 0 8.57 0 12.8v4.62c0.01 7.9-0.13 15.8-0.56 23.7-0.04 0.7-0.07 1.4-0.11 2.12-0.36 5.88-1.49 11.2-3.46 16.7-0.32 0.95-0.63 1.9-0.96 2.88-6.59 17.8-21.1 31.4-38.2 39.3-12.7 5.46-24.8 5.96-38.4 5.95-1.58 0-3.17 0.01-4.76 0.01-4.34 0.01-8.69 0.01-13 0.01-4.7 0-9.39 0.01-14.1 0.02-10.3 0.01-20.5 0.02-30.8 0.02-6.41 0-12.8 0.01-19.2 0.01l-53.2 0.03h-3.44-3.45-6.91-3.47c-18.5 0-37.1 0.02-55.6 0.05-19 0.02-38.1 0.03-57.1 0.03-10.7 0-21.4 0.01-32.1 0.03-9.09 0.01-18.2 0.02-27.3 0.01-4.64 0-9.28 0-13.9 0.01-4.25 0.01-8.5 0.01-12.8 0-1.53 0-3.06 0-4.59 0.01-20.7 0.11-39.6-6.59-54.9-20.9-20.8-21.9-21-47.8-21-76.3v-7.28c-0.01-5.25-0.01-10.5 0-15.8v-23.4c-0.01-14-0.01-27.9-0.01-41.9 0.01-12.2 0.01-24.5 0.01-36.7v-2.46c0-3.3 0-6.59-0.01-9.89 0-30.9 0-61.8 0.01-92.8v-82.3c-0.01-30.8-0.01-61.7 0-92.6v-9.89-2.46c0-12.2 0-24.4-0.01-36.6 0-13.9 0-27.8 0.01-41.7v-23.3c-0.01-5.82 0-11.6 0-17.5v-7.02c-0.01-11.3 0.09-22.7 0.56-34 0.06-1.37 0.06-1.37 0.12-2.76 1.51-32.4 10.5-63.7 24.4-92.9 0.52-1.1 0.52-1.1 1.06-2.23 28.7-59.7 83-105 145-128 1.09-0.41 1.09-0.41 2.21-0.82 83.5-30.5 179-9.66 247 44.8zm-234-19c-0.85 0.28-1.69 0.56-2.56 0.86-28.4 9.59-54.9 24.3-76.9 44.8-2.17 2.02-4.39 3.97-6.64 5.9-8.55 7.49-15.6 15.7-22.5 24.7-1.27 1.65-2.58 3.27-3.9 4.88-14.2 17.7-24.4 38.7-32.5 59.9-0.27 0.7-0.53 1.39-0.81 2.11-3.46 9.2-5.95 18.5-7.94 28.1-0.2 0.94-0.4 1.88-0.6 2.84-3.69 18.9-3.94 38.1-3.9 57.3-0.01 2.49-0.01 4.98-0.01 7.48-0.01 5.37-0.01 10.8-0.01 16.1 0.01 8 0.01 16 0 24-0.01 14.3-0.01 28.6 0 42.8v37.5 2.51 10.1c-0.01 31.6 0 63.1 0.01 94.7 0.01 28 0.01 56.1 0 84.1-0.01 31.5-0.02 63.1-0.01 94.6v10.1 2.51c0.01 12.5 0 25 0 37.5-0.01 14.2-0.01 28.4 0 42.6 0.01 7.94 0.01 15.9 0 23.8 0 5.93 0 11.8 0.01 17.8v7.2c-0.01 3.25 0 6.51 0.01 9.77-0.01 0.93-0.01 1.87-0.02 2.83 0.08 13.7 4.34 24.3 13.8 34.3 3.79 3.48 7.88 5.95 12.5 8.26 1.18 0.6 2.35 1.2 3.56 1.81 8.81 3.05 18.4 2.33 27.6 2.32 1.55 0.01 3.09 0.01 4.63 0.01 4.23 0.01 8.45 0.01 12.7 0.01 4.56 0 9.12 0 13.7 0.01 8.94 0 17.9 0.01 26.8 0.01h21.8c20.6 0.01 41.2 0.02 61.8 0.02h3.36 3.37c18-0.01 36 0 54 0.02 18.5 0.01 37 0.02 55.5 0.02 10.4 0 20.8 0 31.1 0.01 8.84 0.01 17.7 0.01 26.5 0.01 4.51-0.01 9.01-0.01 13.5 0 4.13 0.01 8.26 0.01 12.4 0 1.49 0 2.98 0 4.47 0.01 15.9 0.05 30.1-2.26 42.2-13.4 11.2-12.3 12.3-26.3 12.3-42.1 0-1.65 0.01-3.31 0.01-4.97 0.01-4.53 0.01-9.07 0.01-13.6 0-4.9 0.01-9.8 0.02-14.7 0.02-9.59 0.02-19.2 0.02-28.8 0.01-7.8 0.01-15.6 0.02-23.4 0.01-22.1 0.02-44.3 0.02-66.4v-3.62-3.62c0-19.3 0.02-38.7 0.05-58 0.03-19.9 0.04-39.8 0.04-59.6 0-11.2 0-22.3 0.02-33.5 0.02-9.5 0.03-19 0.01-28.5 0-4.84 0-9.68 0.01-14.5 0.02-4.44 0.02-8.87 0-13.3 0-1.6 0-3.2 0.01-4.8 0.09-12.9-1.57-24.8-9.51-35.4-0.76-1.03-1.53-2.06-2.31-3.12-9.02-9.65-20.6-14.4-33.7-15-2.15-0.04-4.3-0.05-6.45-0.05-0.81 0-1.63 0-2.47-0.01-2.71 0-5.42-0.01-8.14-0.01-1.95 0-3.9-0.01-5.86-0.01l-12.6-0.03c-6.67-0.01-13.3-0.03-20-0.05-19-0.06-37.9-0.12-56.8-0.15-10.5-0.02-20.9-0.05-31.4-0.09-5.53-0.02-11-0.04-16.6-0.04-48.7-0.02-92.3-4.87-131-38.5-0.84-0.72-1.67-1.43-2.54-2.17-9.76-8.54-17.4-18-24.5-28.8-1.02-1.55-1.02-1.55-2.07-3.12-14.9-23.3-23.9-51.2-24.9-78.9-0.04-0.9-0.08-1.8-0.12-2.72-0.75-32.7 9.53-68 29.1-94.3 0.62-0.97 1.24-1.94 1.88-2.94 9.65-13.9 21.3-25.3 35.1-35.1 0.91-0.7 1.83-1.41 2.77-2.13 33.6-25.1 76.6-31.8 117-26.3 12.9 2.1 26 5.71 37.8 11.5 0.61 0.29 1.23 0.58 1.86 0.88 19.4 9.2 38.4 21.3 52.3 37.9 1.32 1.57 2.68 3.1 4.06 4.61 24.5 27.6 35.9 64 38.2 100 0.78 11.8 1.92 22.9 10.9 31.6 1.4 1.13 2.82 2.25 4.26 3.34 0.49 0.48 0.97 0.96 1.47 1.46 0 3.44 0 3.44-1 6l5 1 1-3h6c-1.2 4.67-3.45 6.33-7.34 8.79-1.96 1.28-1.96 1.28-3.66 4.21-0.37 3.52-0.41 5.35 1.5 8.38 0.5 0.53 0.99 1.07 1.5 1.62 1.05-0.35 2.1-0.7 3.19-1.06 3.81-0.94 3.81-0.94 8.81 0.06v-21h10c8.55-1.25 16.6-5.57 21.9-12.5 12.8-20.8 6.06-48.8 0.91-71.3-7.43-29.8-21.4-57.7-39.8-82.2-0.48-0.64-0.96-1.29-1.45-1.95-9.04-12-18.9-23.5-30.6-33-1.33-1.15-1.33-1.15-2.7-2.32-7.1-6.07-14.5-11.6-22.3-16.7-0.93-0.61-0.93-0.61-1.88-1.23-25.4-16.6-55-29.1-85.1-33.8-0.85-0.14-1.7-0.27-2.58-0.41-36.2-5.58-72.6-3.42-107 8.41z" fill="#FFFFFF"/>
<path transform="translate(987,471)" d="m0 0v13h-7l-2-4c5.8-9 5.8-9 9-9z"/>
</svg>
